HIERARCHY
ROOT root
{
	OFFSET 0.000000 0.000000 0.000000
	CHANNELS 6 Xposition Yposition Zposition Zrotation Yrotation Xrotation
	JOINT lhip
	{
		OFFSET 0.058581 -0.082280 -0.017664
		CHANNELS 3 Zrotation Yrotation Xrotation
		JOINT lknee
		{
			OFFSET 0.043451 -0.386469 0.008037
			CHANNELS 3 Zrotation Yrotation Xrotation
			JOINT lankle
			{
				OFFSET -0.014790 -0.426874 -0.037428
				CHANNELS 3 Zrotation Yrotation Xrotation
				JOINT ltoe
				{
					OFFSET 0.041054 -0.060286 0.122042
					CHANNELS 3 Zrotation Yrotation Xrotation
					End Site
					{
						OFFSET 0.000000 0.000000 0.000000
					}
				}
			}
		}
	}
	JOINT rhip
	{
		OFFSET -0.060310 -0.090513 -0.013543
		CHANNELS 3 Zrotation Yrotation Xrotation
		JOINT rknee
		{
			OFFSET -0.043257 -0.383688 -0.004843
			CHANNELS 3 Zrotation Yrotation Xrotation
			JOINT rankle
			{
				OFFSET 0.019056 -0.420046 -0.034562
				CHANNELS 3 Zrotation Yrotation Xrotation
				JOINT rtoe
				{
					OFFSET -0.034840 -0.062106 0.130323
					CHANNELS 3 Zrotation Yrotation Xrotation
					End Site
					{
						OFFSET 0.000000 0.000000 0.000000
					}
				}
			}
		}
	}
	JOINT lowerback
	{
		OFFSET 0.004439 0.124404 -0.038385
		CHANNELS 3 Zrotation Yrotation Xrotation
		JOINT upperback
		{
			OFFSET 0.004488 0.137956 0.026820
			CHANNELS 3 Zrotation Yrotation Xrotation
			JOINT chest
			{
				OFFSET -0.002265 0.056032 0.002855
				CHANNELS 3 Zrotation Yrotation Xrotation
				JOINT lowerneck
				{
					OFFSET -0.013390 0.211636 -0.033468
					CHANNELS 3 Zrotation Yrotation Xrotation
					JOINT upperneck
					{
						OFFSET 0.010113 0.088937 0.050410
						CHANNELS 3 Zrotation Yrotation Xrotation
						End Site
						{
							OFFSET 0.000000 0.000000 0.000000
						}
					}
				}
				JOINT lclavicle
				{
					OFFSET 0.071702 0.114000 -0.018898
					CHANNELS 3 Zrotation Yrotation Xrotation
					JOINT lshoulder
					{
						OFFSET 0.122921 0.045205 -0.019046
						CHANNELS 3 Zrotation Yrotation Xrotation
						JOINT lelbow
						{
							OFFSET 0.255332 -0.015649 -0.022946
							CHANNELS 3 Zrotation Yrotation Xrotation
							JOINT lwrist
							{
								OFFSET 0.265709 0.012698 -0.007375
								CHANNELS 3 Zrotation Yrotation Xrotation
								End Site
								{
									OFFSET 0.000000 0.000000 0.000000
								}
							}
						}
					}
				}
				JOINT rclavicle
				{
					OFFSET -0.082954 0.112472 -0.023707
					CHANNELS 3 Zrotation Yrotation Xrotation
					JOINT rshoulder
					{
						OFFSET -0.113228 0.046853 -0.008472
						CHANNELS 3 Zrotation Yrotation Xrotation
						JOINT relbow
						{
							OFFSET -0.260127 -0.014369 -0.031269
							CHANNELS 3 Zrotation Yrotation Xrotation
							JOINT rwrist
							{
								OFFSET -0.269108 0.006794 -0.006027
								CHANNELS 3 Zrotation Yrotation Xrotation
								End Site
								{
									OFFSET 0.000000 0.000000 0.000000
								}
							}
						}
					}
				}
			}
		}
	}
}
MOTION
Frames: 5
Frame Time: 0.033333
0.552039 0.225793 0.988671 90.426751 4.069825 97.009423 7.145251 3.767811 -3.354326 3.477036 -2.167246 -8.032274 -3.066673 7.770042 -3.045120 0.000000 -0.000000 0.000000 -0.099180 -2.810347 -7.644968 -1.894836 -0.972456 0.284009 7.011578 -2.934647 -2.249915 0.000000 -0.000000 0.000000 -0.371814 -2.378946 -0.406575 2.732669 -2.375803 -6.884844 1.903844 0.607284 -0.249774 0.259011 -4.165466 2.590320 0.806796 -8.020279 -2.028930 -17.546020 15.505615 -3.989169 -65.258443 -11.068995 8.410966 10.644460 -9.621762 11.634865 -2.217886 -5.170725 -7.198463 16.640148 -9.335946 -2.957080 63.036279 14.155196 13.624600 -8.526246 5.169371 9.671432 4.989280 -1.273755 4.270011 
0.551318 0.225019 0.988624 90.367430 3.807959 96.723865 6.858805 3.670983 -3.123127 3.547301 -1.612985 -7.970238 -3.061543 7.162735 -2.953435 0.000000 -0.000000 0.000000 -0.406651 -2.385483 -7.399717 -1.973400 -1.786703 0.357216 7.332044 -2.385025 -2.425674 0.000000 -0.000000 0.000000 0.121347 -1.030945 0.119236 2.077909 -2.023412 -7.172997 1.058303 -0.470398 -0.366653 0.613328 -3.978454 2.602841 1.030808 -8.076255 -1.891026 -16.201480 15.061708 -2.981674 -66.685518 -11.819853 9.109066 12.676801 -8.850915 11.417745 -3.595172 -5.444917 -7.754712 16.809921 -9.844255 -3.779815 63.374029 14.048708 12.277884 -10.696843 4.572065 1.803922 4.772393 0.238101 -7.531829 
0.551419 0.224589 0.988422 90.326014 3.977770 96.593782 7.081740 3.773289 -2.936687 3.499654 -1.704246 -8.065585 -3.105968 7.177723 -2.929900 0.000000 -0.000000 0.000000 -0.152137 -2.238269 -7.188253 -2.083305 -1.590668 0.081768 6.464502 -2.355461 -2.989592 0.000000 -0.000000 0.000000 0.351811 -1.022221 0.253072 2.012509 -2.005554 -7.186358 1.098131 -0.499202 -0.474737 0.632199 -3.569157 2.687491 1.009051 -7.495653 -1.740030 -15.851192 14.828044 -2.641317 -66.881030 -11.573466 9.035557 12.815945 -9.066484 11.449675 -3.690791 -5.190440 -8.403631 16.432278 -9.599028 -3.545998 63.678432 14.096021 12.169806 -10.686901 3.986648 1.784485 4.761841 0.070660 -8.141835 
0.552058 0.223729 0.987951 90.485752 4.062406 96.949076 7.320527 3.914745 -3.330203 3.297666 -1.865837 -8.098030 -3.188194 7.096892 -2.816200 0.000000 -0.000000 0.000000 0.203315 -2.106601 -7.355950 -2.303325 -1.429194 -0.337668 5.621922 -2.483160 -3.390303 0.000000 -0.000000 0.000000 0.530945 -1.134625 -0.069617 1.799487 -1.875541 -7.342267 1.062352 -0.403234 -0.922582 0.746228 -3.096395 3.233620 1.166350 -6.455266 -1.269472 -15.351351 14.166292 -1.938928 -67.145247 -11.338116 8.888462 13.406773 -8.968864 11.343399 -3.969650 -4.428674 -9.016335 15.621834 -9.379066 -3.120321 64.317263 13.868517 11.830912 -10.534127 3.131126 1.334120 5.304965 -0.406032 -9.720758 
0.551993 0.223679 0.987831 90.452213 4.027133 97.020323 7.281469 3.875692 -3.410486 3.283227 -1.800689 -8.078696 -3.166186 7.113467 -2.871726 0.000000 -0.000000 0.000000 0.180393 -2.038730 -7.463698 -2.334367 -1.452121 -0.297897 5.612561 -2.481416 -3.427226 0.000000 -0.000000 0.000000 0.546554 -1.079560 -0.060153 1.766351 -1.834859 -7.455799 1.027922 -0.427701 -1.018079 0.787429 -2.780876 3.297435 1.143324 -6.142534 -1.095371 -15.287693 14.020337 -1.816589 -67.206000 -11.335524 8.889782 13.568288 -8.667848 11.298240 -4.053328 -4.492253 -8.936727 15.600081 -9.400121 -3.087189 64.336902 13.807653 11.843538 -10.544883 2.895519 1.468070 5.286429 -0.380035 -9.742969 
